<?xml version="1.0" encoding="utf-8"?>
<!-- Uploaded to: SVG Repo, www.svgrepo.com, Generator: SVG Repo Mixer Tools -->
<svg width="800px" height="800px" viewBox="-1 0 20 20" xmlns="http://www.w3.org/2000/svg">
  <g id="copy-2" transform="translate(-3 -2)">
    <path id="secondary" fill="#2ca9bc" d="M10,5V3h9a1,1,0,0,1,1,1V16a1,1,0,0,1-1,1H9a1,1,0,0,1-1-1V5Z"/>
    <path id="primary" d="M16,17v3a1,1,0,0,1-1,1H5a1,1,0,0,1-1-1V8A1,1,0,0,1,5,7H8" fill="none" stroke="#000000" stroke-linecap="round" stroke-linejoin="round" stroke-width="2"/>
    <path id="primary-2" data-name="primary" d="M8,5V16a1,1,0,0,0,1,1H19a1,1,0,0,0,1-1V4a1,1,0,0,0-1-1H10ZM8,5h2V3Z" fill="none" stroke="#000000" stroke-linecap="round" stroke-linejoin="round" stroke-width="2"/>
  </g>
</svg>